<svg xmlns="http://www.w3.org/2000/svg" width="2000" height="2000" enable-background="new 0 0 2000 2000" viewBox="0 0 2000 2000" id="delivery-truck"><path d="M1498.3916 1067.7539h173.46c12.7246 0 24.1538-5.9707 31.3584-16.3813 8.8257-12.7534 9.9771-30.4541 3.1587-48.5635l-1.4233-3.7803-2.3721-3.269c-.2637-.3633-26.6631-36.7236-53.7769-72.6138-16.0449-21.2383-29.2437-38.2197-39.23-50.4727-18.4912-22.6885-28.1104-33.5942-44.584-33.5942h-66.5908c-15.4531 0-29.5327 9.3589-37.6631 25.0356-5.2056 10.0371-7.957 22.1685-7.957 35.0825v108.4346c0 12.9146 2.751 25.0464 7.9561 35.084C1468.8579 1058.394 1482.9375 1067.7539 1498.3916 1067.7539zM1512.7715 1007.6318V899.1973c0-.0396 0-.0791 0-.1182h40.6978c14.7739 16.8301 50.0547 63.1152 83.5586 108.6748h-124.2563C1512.7715 1007.7134 1512.7715 1007.6724 1512.7715 1007.6318zM247.792 781.374l139.2168.001c16.5674 0 30-13.4321 30-30 0-16.5684-13.4312-30-30-30l-139.2168-.001c-16.5674 0-30 13.4321-30 30C217.792 767.9424 231.2231 781.374 247.792 781.374zM417.0088 909.9795c0-16.5684-13.4312-30-30-30l-273.5527-.001c-16.5674 0-30 13.4326-30 30 0 16.5684 13.4312 30 30 30l273.5527.001C403.5762 939.9795 417.0088 926.5469 417.0088 909.9795zM417.0088 1068.5859c0-16.5684-13.4312-30-30-30l-139.2168-.001c-16.5674 0-30 13.4321-30 30 0 16.5684 13.4312 30 30 30l139.2168.001C403.5762 1098.5859 417.0088 1085.1538 417.0088 1068.5859z"></path><circle cx="724.409" cy="1315.224" r="42.132"></circle><circle cx="1600.939" cy="1315.223" r="42.132"></circle><path d="M1888.7759,1214.4033c-14.3218-10.21-32.6733-15.9741-51.8716-16.3594V997.7822c0-13.5503-5.8472-30.8525-14.2207-42.0786
		l-164.6641-220.7217c-10.1655-13.6255-29.876-23.1421-47.9326-23.1421h-207.4297V609.6797
		c0-25.9507-20.4653-47.0635-45.6201-47.0635h-862.248c-25.1558,0-45.6211,21.1128-45.6211,47.0635v588.3643
		c-19.1982,0.3853-37.5488,6.1489-51.8711,16.3594c-17.6475,12.5806-27.7686,30.9697-27.7686,50.4521v13.5195
		c0,19.4829,10.1216,37.8721,27.769,50.4526c14.8311,10.5732,33.98,16.396,53.9194,16.396H605.98
		c13.4067,52.9014,61.4175,92.1602,118.4292,92.1602c57.0112,0,105.0215-39.2588,118.4282-92.1602h639.6709
		c13.4072,52.9014,61.4185,92.1602,118.4312,92.1602c57.0112,0,105.0215-39.2588,118.4282-92.1602h115.4888
		c19.9395,0,39.0884-5.8228,53.9194-16.396c17.647-12.5806,27.7681-30.9697,27.7681-50.4526v-13.5195
		C1916.5439,1245.3735,1906.4229,1226.9844,1888.7759,1214.4033z M1609.6245,771.8398c0.3989,0.0933,0.9668,0.3071,1.4302,0.5303
		L1774.5313,991.5c0.8955,1.3721,2.1582,4.9038,2.373,6.6143v199.8926h-83.3203h-58.2295
		c-10.9209-3.2119-22.4688-4.9434-34.415-4.9434c-11.9468,0-23.4951,1.7314-34.416,4.9434h-55.7817l-108.0845-0.188v-425.979
		H1609.6245z M832.313,1258.0068h660.7202c-4.5391,8.5254-8.0996,17.6465-10.5249,27.2168H842.8374
		C840.4121,1275.6533,836.8516,1266.5322,832.313,1258.0068z M509.168,622.6162h833.4893v132.2832v442.4453H816.5693v0.6621
		h-57.7451c-10.9209-3.2119-22.4688-4.9434-34.415-4.9434s-23.4946,1.7314-34.415,4.9434H632.248v-0.6621H509.168V622.6162z
		 M429.5283,1277.5864v-11.9419c1.6563-2.5117,9.3945-7.6377,21.6885-7.6377h165.2881
		c-4.5391,8.5254-8.0996,17.6465-10.5249,27.2168H451.2168C438.9219,1285.2236,431.1836,1280.0977,429.5283,1277.5864z
		 M724.4092,1377.3838c-34.2759,0-62.1611-27.8848-62.1611-62.1602s27.8853-62.1602,62.1611-62.1602
		c8.4951,0,16.5957,1.7173,23.9785,4.8159v0.1274h0.3062c22.2422,9.4761,37.8755,31.5537,37.8755,57.2168
		C786.5693,1349.499,758.6846,1377.3838,724.4092,1377.3838z M1600.9395,1377.3838c-34.2769,0-62.1631-27.8848-62.1631-62.1602
		s27.8862-62.1602,62.1631-62.1602c34.2754,0,62.1602,27.8848,62.1602,62.1602S1635.2148,1377.3838,1600.9395,1377.3838z
		 M1856.5439,1277.5864c-1.6553,2.5112-9.3931,7.6372-21.6875,7.6372h-115.4888c-2.4253-9.5703-5.9858-18.6914-10.5244-27.2168
		h81.6357c0.5308,0.0063,1.1284,0.0127,1.7866,0.0127c0.4761,0,0.9839-0.0034,1.5195-0.0127h41.0713
		c12.2944,0,20.0322,5.126,21.6875,7.6377V1277.5864z"></path></svg>